<?xml version="1.0" encoding="utf-8"?>
<!-- Generator: Adobe Illustrator 27.3.1, SVG Export Plug-In . SVG Version: 6.00 Build 0)  -->
<svg version="1.1" id="Layer_1" xmlns="http://www.w3.org/2000/svg" xmlns:xlink="http://www.w3.org/1999/xlink" x="0px" y="0px"
	 viewBox="0 0 158 82.9" style="enable-background:new 0 0 158 82.9;" xml:space="preserve">
<style type="text/css">
	.st0{enable-background:new    ;}
	.st1{fill:#6E8FAC;}
	.st2{fill:#476580;}
</style>
<g>
	<g class="st0">
		<path class="st1" d="M30.6,30l2.6-12.8h2.9l-3.9,17.1h-2.8l-3.2-12.5l-3.3,12.5H20l-3.9-17.1H19l2.6,12.8l3.3-12.8h2.5L30.6,30z"
			/>
		<path class="st1" d="M43.7,34.4c-1.8,0-3.3-0.6-4.4-1.7s-1.7-2.7-1.7-4.5v-0.4c0-1.3,0.2-2.4,0.7-3.4s1.2-1.8,2.1-2.3
			s1.9-0.8,3-0.8c1.7,0,3.1,0.6,4,1.7s1.4,2.7,1.4,4.7v1.1h-8.3c0.1,1,0.4,1.9,1,2.5s1.4,0.9,2.3,0.9c1.3,0,2.4-0.5,3.2-1.6l1.5,1.5
			c-0.5,0.8-1.2,1.3-2,1.8S44.7,34.4,43.7,34.4z M43.3,23.6c-0.8,0-1.4,0.3-1.9,0.8s-0.8,1.3-0.9,2.3h5.4v-0.2
			c-0.1-1-0.3-1.7-0.8-2.2S44.1,23.6,43.3,23.6z"/>
		<path class="st1" d="M54,34.2h-2.8v-18H54V34.2z"/>
		<path class="st1" d="M62.3,32.1c0.7,0,1.3-0.2,1.8-0.6s0.7-0.9,0.8-1.5h2.7c0,0.8-0.3,1.5-0.7,2.2s-1.1,1.2-1.9,1.6
			s-1.6,0.6-2.6,0.6c-1.8,0-3.2-0.6-4.2-1.7s-1.6-2.7-1.6-4.8v-0.3c0-1.9,0.5-3.5,1.5-4.6s2.4-1.7,4.2-1.7c1.5,0,2.7,0.4,3.7,1.3
			s1.4,2,1.5,3.5h-2.7c0-0.7-0.3-1.3-0.7-1.8s-1.1-0.7-1.8-0.7c-0.9,0-1.6,0.3-2.1,1s-0.8,1.7-0.8,3v0.5c0,1.4,0.2,2.4,0.7,3.1
			S61.4,32.1,62.3,32.1z"/>
		<path class="st1" d="M69.1,27.7c0-1.2,0.2-2.4,0.7-3.4s1.2-1.8,2.1-2.3s1.9-0.8,3.1-0.8c1.7,0,3.1,0.6,4.2,1.7s1.6,2.6,1.7,4.4
			l0,0.7c0,1.2-0.2,2.4-0.7,3.4s-1.2,1.7-2.1,2.3s-1.9,0.8-3.1,0.8c-1.8,0-3.2-0.6-4.3-1.8s-1.6-2.8-1.6-4.8V27.7z M72,28
			c0,1.3,0.3,2.3,0.8,3.1s1.3,1.1,2.2,1.1s1.7-0.4,2.2-1.1s0.8-1.8,0.8-3.3c0-1.3-0.3-2.3-0.8-3s-1.3-1.1-2.2-1.1
			c-0.9,0-1.7,0.4-2.2,1.1S72,26.5,72,28z"/>
		<path class="st1" d="M86,21.5l0.1,1.3c0.9-1,2.1-1.6,3.7-1.6c1.7,0,2.9,0.6,3.5,1.9c0.9-1.3,2.2-1.9,3.9-1.9
			c1.4,0,2.4,0.4,3.1,1.2s1,1.9,1,3.4v8.3h-2.8v-8.2c0-0.8-0.2-1.4-0.5-1.8s-0.9-0.6-1.7-0.6c-0.6,0-1.2,0.2-1.6,0.5
			s-0.7,0.8-0.9,1.4l0,8.7h-2.8v-8.3c0-1.5-0.8-2.2-2.3-2.2c-1.1,0-1.9,0.5-2.4,1.4v9.2h-2.8V21.5H86z"/>
		<path class="st1" d="M109.8,34.4c-1.8,0-3.3-0.6-4.4-1.7s-1.7-2.7-1.7-4.5v-0.4c0-1.3,0.2-2.4,0.7-3.4s1.2-1.8,2.1-2.3
			s1.9-0.8,3-0.8c1.7,0,3.1,0.6,4,1.7s1.4,2.7,1.4,4.7v1.1h-8.3c0.1,1,0.4,1.9,1,2.5s1.4,0.9,2.3,0.9c1.3,0,2.4-0.5,3.2-1.6l1.5,1.5
			c-0.5,0.8-1.2,1.3-2,1.8S110.8,34.4,109.8,34.4z M109.4,23.6c-0.8,0-1.4,0.3-1.9,0.8s-0.8,1.3-0.9,2.3h5.4v-0.2
			c-0.1-1-0.3-1.7-0.8-2.2S110.2,23.6,109.4,23.6z"/>
		<path class="st1" d="M126.6,18.4v3.1h2.2v2.1h-2.2v7.1c0,0.5,0.1,0.8,0.3,1s0.5,0.3,1,0.3c0.3,0,0.7,0,1-0.1v2.2
			c-0.6,0.2-1.3,0.3-1.9,0.3c-2.2,0-3.3-1.2-3.3-3.6v-7.2h-2.1v-2.1h2.1v-3.1H126.6z"/>
		<path class="st1" d="M130.1,27.7c0-1.2,0.2-2.4,0.7-3.4s1.2-1.8,2.1-2.3s1.9-0.8,3.1-0.8c1.7,0,3.1,0.6,4.2,1.7s1.6,2.6,1.7,4.4
			l0,0.7c0,1.2-0.2,2.4-0.7,3.4s-1.2,1.7-2.1,2.3s-1.9,0.8-3.1,0.8c-1.8,0-3.2-0.6-4.3-1.8s-1.6-2.8-1.6-4.8V27.7z M133,28
			c0,1.3,0.3,2.3,0.8,3.1s1.3,1.1,2.2,1.1s1.7-0.4,2.2-1.1s0.8-1.8,0.8-3.3c0-1.3-0.3-2.3-0.8-3s-1.3-1.1-2.2-1.1
			c-0.9,0-1.7,0.4-2.2,1.1S133,26.5,133,28z"/>
	</g>
	<g id="More_Text" transform="translate(166 187)">
		<path id="Pfad_1237" class="st2" d="M-121.5-141.5h-2.2c-0.4,0-0.7,0.2-0.8,0.5l-5.4,10l-5.4-10c-0.1-0.3-0.5-0.5-0.8-0.5h-2.2
			c-0.4,0-0.7,0.3-0.7,0.6c0,0,0,0,0,0.1v18c0,0.4,0.3,0.7,0.6,0.7c0,0,0,0,0.1,0h2.3c0.2,0,0.4-0.1,0.5-0.2
			c0.1-0.1,0.2-0.3,0.2-0.5v-12l3.9,7.4c0.2,0.4,0.5,0.6,0.9,0.6h1.1c0.4,0,0.8-0.2,1-0.6l3.9-7.4v12c0,0.2,0.1,0.3,0.2,0.5
			c0.1,0.1,0.3,0.2,0.5,0.2h2.3c0.2,0,0.4-0.1,0.5-0.2c0.1-0.1,0.2-0.3,0.2-0.5v-18c0-0.2-0.1-0.4-0.2-0.5
			C-121.2-141.5-121.4-141.5-121.5-141.5L-121.5-141.5z"/>
		<path id="Pfad_1238" class="st2" d="M-103.2-139.8c-1.6-1.4-3.7-2.1-5.8-2c-2.1-0.1-4.2,0.6-5.8,2c-1.5,1.5-2.4,3.5-2.3,5.7
			c0,0.5,0,1.3,0,2.4c0,1.1,0,1.8,0,2.4c-0.1,2.1,0.7,4.2,2.2,5.7c1.6,1.3,3.7,2,5.9,1.9c2.1,0.1,4.2-0.6,5.9-1.9
			c1.5-1.5,2.3-3.5,2.2-5.7c0-1.1,0-1.9,0-2.4s0-1.3,0-2.4C-100.9-136.3-101.7-138.4-103.2-139.8L-103.2-139.8z M-104.9-129.6
			c0,1.2-0.4,2.5-1.2,3.4c-0.8,0.8-1.9,1.2-3,1.1c-1.1,0.1-2.2-0.4-3-1.1c-0.8-1-1.2-2.2-1.2-3.4c0-0.6,0-1.3,0-2.2s0-1.7,0-2.2
			c0-1.2,0.4-2.5,1.2-3.4c0.8-0.8,1.8-1.2,2.9-1.1c1.1,0,2.2,0.4,3,1.1c0.8,1,1.2,2.2,1.2,3.4c0,1.1,0,1.8,0,2.2
			C-104.8-131.1-104.8-130.3-104.9-129.6L-104.9-129.6z"/>
		<path id="Pfad_1239" class="st2" d="M-85.9-130.1c1.1-0.4,2-1.1,2.7-2c0.7-1,1-2.2,1-3.4c0.1-1.7-0.6-3.4-1.9-4.5
			c-1.5-1.1-3.4-1.7-5.3-1.6h-7.2c-0.4,0-0.7,0.3-0.7,0.6c0,0,0,0,0,0.1v18c0,0.2,0.1,0.3,0.2,0.5c0.1,0.1,0.3,0.2,0.5,0.2h2.5
			c0.2,0,0.4-0.1,0.5-0.2c0.1-0.1,0.2-0.3,0.2-0.5v-6.7h3.8l3.6,6.6c0.1,0.2,0.2,0.4,0.4,0.6c0.2,0.2,0.4,0.2,0.7,0.2h2.5
			c0.2,0,0.3-0.1,0.4-0.2c0.1-0.1,0.2-0.3,0.2-0.4c0-0.1,0-0.2-0.1-0.3L-85.9-130.1z M-87-133.3c-0.7,0.5-1.6,0.8-2.5,0.8h-3.9v-5.9
			h3.9c0.9-0.1,1.8,0.2,2.5,0.8c0.6,0.6,0.9,1.4,0.8,2.2C-86.1-134.7-86.4-133.9-87-133.3L-87-133.3z"/>
		<path id="Pfad_1240" class="st2" d="M-35-123.7l-9.4-4.8l1.1,3.1h-3.3v-8c0-0.3-0.2-0.5-0.5-0.5c0,0,0,0,0,0h-2.3
			c-0.7,0-0.6,0.5-0.6,0.5v8h-2v-10.3c0,0,0-0.6-0.6-0.6H-55c-0.7,0-0.6,0.6-0.6,0.6v10.4h-2v-6.1c0,0,0-0.4-0.6-0.4h-2.3
			c-0.7,0-0.6,0.3-0.6,0.3v6.2h-13.8v-5.1h8.5c0.2,0,0.4-0.1,0.5-0.2c0.1-0.1,0.2-0.3,0.2-0.5v-1.7c0-0.4-0.3-0.7-0.6-0.7
			c0,0,0,0-0.1,0h-8.5v-4.9h9.1c0.2,0,0.4-0.1,0.5-0.2c0.1-0.1,0.2-0.3,0.2-0.5v-1.8c0-0.4-0.3-0.7-0.6-0.7c0,0,0,0-0.1,0H-78
			c-0.4,0-0.7,0.3-0.7,0.6c0,0,0,0,0,0.1v18c0,0.2,0.1,0.3,0.2,0.5c0.1,0.1,0.3,0.2,0.5,0.2h33.9l-0.9,1.9L-35-123.7L-35-123.7z"/>
	</g>
</g>
</svg>
