<?xml version="1.0" encoding="utf-8"?>
<!-- Generator: Adobe Illustrator 26.5.0, SVG Export Plug-In . SVG Version: 6.00 Build 0)  -->
<svg version="1.1" id="Liniengrafik" xmlns="http://www.w3.org/2000/svg" xmlns:xlink="http://www.w3.org/1999/xlink" x="0px"
	 y="0px" viewBox="0 0 326 340.2" style="enable-background:new 0 0 326 340.2;" xml:space="preserve">
<style type="text/css">
	.st0{fill:#6D8EAB;}
	.st1{fill:#FFFFFF;}
</style>
<g>
	<g>
		<circle class="st0" cx="163" cy="108.7" r="76.6"/>
		<path class="st1" d="M218.6,119c-0.3-0.1-0.6-0.2-0.9-0.2c-3.9,0.1-8.1,0.3-11.9,0.1c-0.6-0.1-0.9-0.1-1.1-0.5v0.1l-0.2-0.8
			c-0.5-1.4-0.4-3.3-0.9-4.9c-0.1-0.6-0.6-1.5-1.3-1.8c-0.4-0.3-1.3-0.3-1.8-0.1c-0.5,0.2-0.7,0.4-0.9,0.6c-0.8,0.9-1,2.1-1.2,3
			c-0.2,1.2-0.6,3.8-0.8,5c0,0.2-0.1,0.5-0.1,0.8c-0.6-4-1.2-8-1.6-12c-0.2-1.4-0.2-2.8-1.2-4c-0.2-0.2-0.5-0.5-1-0.7
			c-0.8-0.4-1.9-0.1-2.4,0.4c-1.1,1-1.6,2.3-2,3.6c-0.1,0.1-0.1,0.1-0.1,0.1l0,0l0,0l0,0l0,0l0,0c0,0.1-0.1,0.3-0.1,0.4
			c-0.3,1.7-0.7,4.2-0.9,5.9c-0.4,2.1-0.5,4.4-1.1,6.4c-0.3-0.4-0.6-0.9-1.1-1.3c-1.2-1.1-3.3-1-4.2,0.4c-0.6,0.8-0.8,1.6-0.8,2.4
			c-0.4,0.6-0.5,1.3-0.7,2c-0.7,3.1-1.1,6.5-1.5,9.7c-2.2-11.3-4.3-22.8-5.9-34.2c-1-6.5-1.6-13-2.5-19.5c-0.4-2.6-0.7-5.1-1.6-7.7
			c-0.4-1-1.3-2.1-2.6-2c-1.1,0.2-1.4,0.5-1.9,1.2c-1.1,2.2-0.9,4.8-1.2,7c-0.4,10.7-2.2,21.9-3.8,33c-0.7,4.3-1.4,8.7-2.3,12.9
			l-0.6-2.6l-0.1-0.4c-0.8-1.2-1.9-2.7-3.6-2.7c-0.4,0-1.1,0-1.7-0.1c-0.2-2.1-0.5-5-0.7-6.9c-0.2-1.1-0.3-2.6-1.3-3.6
			c-1.1-1-2.9-0.6-3.6,0.4c-0.7,1-0.6,1.5-0.9,2.4c-0.5,2.4-1,4.9-1.5,7.2c0-0.1,0,0,0,0.1s-0.1,0.3-0.1,0.4v0.1h-0.1
			c-5.9,0.2-11.7,0.5-17.6,1.4c-0.9,0.2-0.7,1.3,0,1.4c3.5,0.5,7.1,0.8,10.6,1.1c2.2,0.1,4.4,0.2,6.6,0.3c0.7,0.1,1.5,0,2.2-0.3
			c1.1-0.5,1.7-1.2,2.2-2.1c0.4,1.1,1.1,2.2,2.4,2.5c0.4,0.1,0.7,0.1,1,0.1c0.6,0,1.5,0,2.2-0.1c0.1,0.1,0.1,0.1,0.2,0.2
			c0.2,0.8,1.8,7.2,1.9,7.9c-0.2,1.3-0.4,2.6-0.4,4c0,0.3,0.1,0.8,0.3,1.2c0.6,1.2,2.3,1.4,3.2,0.6c0.5-0.4,0.7-0.9,0.9-1.3
			c2.5-7.6,3.9-15.6,5.1-23.5c1.4-8.9,2.5-17.9,3.5-26.9c0.6,4.9,1.1,9.9,1.8,14.8c1.9,13,4.2,25.8,6.8,38.7
			c0.1,1.1,0.3,2.1,0.6,3.2c0.2,0.8,0.8,1.9,1.7,2.3c3.5,1.2,4-3.8,4.5-6c0.8-4.4,1.1-8.8,2.1-13.1c0.2-0.1,0.4-0.3,0.6-0.6
			c0.2,0.2,0.4,0.3,0.6,0.5c1.1,0.8,3,0.8,4.1-0.3c1.8-2.2,1.8-4.5,2.2-7c0.1-0.8,0.3-2,0.4-3.2c0,0.3,0.1,0.5,0.1,0.8
			c0.6,4.7,1.4,9.4,2.1,14c0.3,1.2,0.5,2.3,2,2.9c3.2,0.7,3.6-3.5,4.1-5.6c0,0,0.5-3.4,0.8-5.3c1.8,2,5.4,1.9,8,1.9
			c2,0,3.9-0.1,5.8-0.1c-1.5,4.8-3.7,9.5-6.4,13.7c-0.9,1.3-1.9,2.7-2.9,3.9l-2.1,2.5c-0.6,0.7-1.6,1.6-2.2,2.3
			c-1.5,1.5-3.2,2.9-4.8,4.3c-0.5,0.4-2.8,2.1-3.3,2.4c-1,0.6-2.5,1.5-3.4,2.1c-1.4,0.8-2.9,1.5-4.3,2.2
			c-35.7,15.7-75.5-10-75.7-49.1c-0.2-17.6,8.6-34.8,22.9-45.3c0.3-0.2,0.4-0.6,0.2-0.9c-0.2-0.3-0.6-0.4-1-0.2
			c-7.8,4.8-14.3,11.7-18.9,19.8c-25.7,47.2,20.9,99.9,71.1,81.3c2.6-1,5.6-2.4,8-3.7c1.1-0.7,2.7-1.6,3.8-2.3
			c0.5-0.4,3-2.2,3.6-2.6c1.4-1.1,2.7-2.3,4-3.5c0.6-0.6,1.8-1.9,2.4-2.5c1.9-2,4-4.6,5.5-6.9c4-5.8,6.8-12.4,8.5-19.2
			C220.6,120.1,219.7,119.2,218.6,119L218.6,119z M143,118.8L143,118.8L143,118.8C143,118.8,143.1,118.8,143,118.8z M149.4,111.2
			L149.4,111.2L149.4,111.2z M152.2,122.9c0,0,0.1,0,0.1,0.1C152.3,123,152.2,123,152.2,122.9z M181.1,123.2L181.1,123.2
			C181.1,123.3,181.1,123.3,181.1,123.2z M182,124.7c0.2,0.1,0.4,0.2,0.6,0.3C182.3,124.9,182.1,124.8,182,124.7z M185.3,122.9
			c0-0.1,0-0.2,0-0.3C185.7,122.8,185.7,122.9,185.3,122.9z"/>
		<path class="st1" d="M166.7,40.5c-53.6,1.6-87.4,55.4-59.8,102.6c10.5,17.4,29.3,29.3,49.4,31.5c15.7,1.7,32-2.3,45-11.2
			c10-6.7,18.3-16.1,24.1-26.9c0.2-0.3,0.6-0.5,1-0.3c0.3,0.2,0.4,0.5,0.3,0.9c-4.4,11.8-12.6,22.3-23.1,29.7
			c-18.3,13.1-43.1,16.4-64.3,8.9c-58.2-21-64.1-100.3-9.7-129.7c11.3-5.9,24.5-8.6,37.1-6.8c0.4,0,0.7,0.4,0.6,0.8
			C167.3,40.2,167,40.5,166.7,40.5L166.7,40.5L166.7,40.5z"/>
	</g>
	<g>
		<path class="st0" d="M72.2,246.3h-5.7c-1,0-1.7,0.5-2.2,1.4l-14.2,26.2L36,247.7c-0.4-0.9-1.2-1.4-2.2-1.4H28
			c-0.5,0-1,0.2-1.3,0.5s-0.5,0.8-0.5,1.3v47.4c0,0.5,0.2,1,0.5,1.3s0.8,0.5,1.3,0.5h6.1c0.5,0,1-0.2,1.3-0.5
			c0.3-0.3,0.5-0.8,0.5-1.2v-31.5l10.2,19.5c0.6,1.1,1.5,1.6,2.5,1.6h3c1,0,1.8-0.5,2.5-1.6l10.2-19.5v31.5c0,0.5,0.2,0.9,0.5,1.2
			c0.3,0.3,0.8,0.5,1.2,0.5h6.1c0.5,0,1-0.2,1.3-0.5s0.5-0.7,0.5-1.3v-47.4c0-0.5-0.2-1-0.5-1.3C73.2,246.5,72.7,246.3,72.2,246.3
			L72.2,246.3z"/>
		<path class="st0" d="M120.3,250.7c-3.8-3.4-8.9-5.2-15.3-5.2s-11.5,1.7-15.3,5.2c-3.8,3.4-5.8,8.4-6,14.9
			c-0.1,1.4-0.1,3.5-0.1,6.3s0,4.8,0.1,6.2c0.2,6.6,2.1,11.6,5.8,14.9s8.8,5,15.4,5s11.8-1.7,15.5-5s5.7-8.3,5.9-14.9
			c0.1-2.8,0.1-4.9,0.1-6.2s-0.1-3.5-0.1-6.3C126.1,259.1,124.1,254.2,120.3,250.7L120.3,250.7z M115.9,277.7c-0.2,4-1.2,7-3.1,9
			s-4.5,3-7.8,3s-5.8-1-7.8-3s-2.9-5-3.1-9c-0.1-1.5-0.1-3.4-0.1-5.9s0-4.5,0.1-5.9c0.2-4,1.2-7,3.1-9s4.5-3,7.7-3s5.8,1,7.8,3
			c1.9,2,3,5,3.1,9c0.1,2.8,0.1,4.8,0.1,5.9C116.1,272.8,116,274.8,115.9,277.7z"/>
		<path class="st0" d="M165.9,276.4c3.1-1.1,5.4-2.8,7.2-5.2c1.7-2.4,2.6-5.4,2.6-8.9c0-5.1-1.7-9-5.1-11.8c-3.4-2.8-8-4.1-14-4.1
			h-18.9c-0.5,0-1,0.2-1.3,0.5s-0.5,0.8-0.5,1.3v47.4c0,0.5,0.2,0.9,0.5,1.2s0.8,0.5,1.2,0.5h6.6c0.5,0,1-0.2,1.3-0.5
			s0.5-0.8,0.5-1.2v-17.5h10.1l9.4,17.3c0.3,0.6,0.7,1.1,1.1,1.5s1,0.5,1.8,0.5h6.6c0.4,0,0.7-0.1,1.1-0.4c0.3-0.3,0.5-0.7,0.5-1.1
			c0-0.2-0.1-0.5-0.2-0.8L165.9,276.4L165.9,276.4z M163,267.9c-1.5,1.3-3.7,2-6.6,2h-10.3v-15.5h10.3c2.9,0,5.1,0.7,6.6,2
			c1.5,1.4,2.2,3.3,2.2,5.8S164.5,266.5,163,267.9z"/>
		<path class="st0" d="M299.8,293.2L275,280.7l2.8,8.2H269v-21c0,0,0-1.3-1.5-1.3h-6.1c-1.8,0-1.5,1.2-1.5,1.2v21.1h-5.2v-27.2
			c0,0,0-1.7-1.5-1.7h-6.1c-1.8,0-1.5,1.5-1.5,1.5v27.4h-5.3v-16.1c0,0,0-1-1.5-1h-6.1c-1.8,0-1.5,0.9-1.5,0.9v16.2h-36.4v-13.3
			h22.4c0.5,0,1-0.2,1.3-0.5s0.5-0.7,0.5-1.3v-4.5c0-0.5-0.2-1-0.5-1.3s-0.8-0.5-1.3-0.5h-22.4v-12.9h24c0.5,0,1-0.2,1.3-0.5
			s0.5-0.7,0.5-1.3V248c0-0.5-0.2-1-0.5-1.3s-0.8-0.5-1.3-0.5h-32.1c-0.5,0-1,0.2-1.3,0.5s-0.5,0.8-0.5,1.3v47.4
			c0,0.5,0.2,0.9,0.5,1.2s0.8,0.5,1.2,0.5h89.2l-2.5,5L299.8,293.2L299.8,293.2z"/>
	</g>
</g>
</svg>
